<svg fill="#ffffff" height="200px" width="200px" version="1.1" xmlns="http://www.w3.org/2000/svg" viewBox="0 0 280.245 280.245" xmlns:xlink="http://www.w3.org/1999/xlink" enable-background="new 0 0 280.245 280.245"><g id="SVGRepo_bgCarrier" stroke-width="0"></g><g id="SVGRepo_tracerCarrier" stroke-linecap="round" stroke-linejoin="round"></g><g id="SVGRepo_iconCarrier"> <g> <path d="m262.206,99.245c5.5,0 9.916-4.754 9.916-10.254v-33.001c0-5.5-4.186-11.54-9.354-13.423l-112.938-41.154c-5.167-1.883-13.614-1.884-18.783-0.003l-113.325,41.16c-5.168,1.881-9.6,7.92-9.6,13.42v33.001c0,5.5 4.916,10.254 10.416,10.254h5.584v148h-5.667c-5.523,0-10.333,4.722-10.333,10.245v13c0,5.523 4.811,9.755 10.333,9.755h244c5.523,0 9.667-4.231 9.667-9.755v-13c0-5.523-4.145-10.245-9.667-10.245h-7.333v-148h7.084zm-105.084,0v148h-33v-148h33zm-100,0h34v148h-34v-148zm165,148h-32v-148h32v148z"></path> </g> </g></svg>