<svg fill="#ffffff" height="200px" width="200px" version="1.1" id="Capa_1" xmlns="http://www.w3.org/2000/svg" xmlns:xlink="http://www.w3.org/1999/xlink" viewBox="0 0 151.366 151.366" xml:space="preserve"><g id="SVGRepo_bgCarrier" stroke-width="0"></g><g id="SVGRepo_tracerCarrier" stroke-linecap="round" stroke-linejoin="round"></g><g id="SVGRepo_iconCarrier"> <g> <path d="M149.308,120.469L88.83,15.716c-2.744-4.752-7.659-7.589-13.146-7.589s-10.402,2.837-13.146,7.589L2.058,120.469 c-2.744,4.753-2.744,10.428,0,15.18s7.658,7.59,13.146,7.59h120.957c5.488,0,10.402-2.837,13.146-7.59 S152.052,125.222,149.308,120.469z M140.648,130.649c-0.45,0.779-1.787,2.59-4.486,2.59H15.205c-2.699,0-4.036-1.811-4.486-2.59 c-0.449-0.779-1.35-2.842,0-5.18L71.197,20.717c1.35-2.338,3.587-2.59,4.486-2.59s3.137,0.252,4.486,2.589l60.479,104.752 C141.998,127.807,141.097,129.87,140.648,130.649z"></path> <path d="M79.168,95.966l3.068-20.805c0.708-4.644,1.365-9.401,1.365-12.742c0-7.5-2.694-11.302-8.006-11.302 c-5.254,0-7.917,3.802-7.917,11.302c0,3.341,0.656,8.098,1.363,12.73l3.074,20.839c1.142-0.334,2.337-0.525,3.569-0.525 C76.885,95.463,78.051,95.647,79.168,95.966z"></path> <path d="M83.37,105.812c-0.06-0.15-0.124-0.298-0.192-0.444c-0.304-0.656-0.684-1.272-1.139-1.827 c-0.34-0.415-0.719-0.797-1.129-1.141s-0.853-0.65-1.321-0.911c-1.171-0.653-2.505-1.027-3.906-1.027 c-4.406,0-8.273,3.908-8.273,8.362c0,1.109,0.237,2.176,0.662,3.151c0.319,0.731,0.744,1.412,1.254,2.021 c0.681,0.812,1.514,1.498,2.45,2.009c0.469,0.255,0.963,0.467,1.477,0.629c0.771,0.243,1.588,0.375,2.429,0.375 c2.281,0,4.349-0.918,5.847-2.4c0.375-0.37,0.713-0.776,1.011-1.212c0.447-0.653,0.8-1.373,1.042-2.142 c0.242-0.768,0.373-1.585,0.373-2.431C83.956,107.768,83.743,106.753,83.37,105.812z"></path> <path d="M79.168,95.966c-1.116-0.318-2.282-0.503-3.485-0.503c-1.232,0-2.427,0.191-3.569,0.525 c-5.525,1.616-9.704,6.834-9.704,12.837c0,7.147,6.078,13.185,13.273,13.185c7.319,0,13.273-5.915,13.273-13.185 C88.956,102.792,84.734,97.552,79.168,95.966z M83.583,111.256c-0.242,0.769-0.596,1.489-1.042,2.142 c-0.298,0.436-0.636,0.841-1.011,1.212c-1.498,1.482-3.566,2.4-5.847,2.4c-0.841,0-1.657-0.132-2.429-0.375 c-0.514-0.162-1.009-0.374-1.477-0.629c-0.937-0.511-1.77-1.197-2.45-2.009c-0.51-0.609-0.936-1.29-1.254-2.021 c-0.425-0.975-0.662-2.042-0.662-3.151c0-4.454,3.866-8.362,8.273-8.362c1.401,0,2.735,0.374,3.906,1.027 c0.469,0.261,0.911,0.567,1.321,0.911s0.789,0.726,1.129,1.141c0.455,0.555,0.834,1.171,1.139,1.827 c0.068,0.146,0.132,0.294,0.192,0.444c0.373,0.941,0.586,1.956,0.586,3.012C83.956,109.671,83.825,110.488,83.583,111.256z"></path> </g> </g></svg>