<svg fill="#ffffff" height="200px" width="200px" version="1.1" id="Layer_1" xmlns="http://www.w3.org/2000/svg" xmlns:xlink="http://www.w3.org/1999/xlink" viewBox="0 0 100 100" enable-background="new 0 0 100 100" xml:space="preserve"><g id="SVGRepo_bgCarrier" stroke-width="0"></g><g id="SVGRepo_tracerCarrier" stroke-linecap="round" stroke-linejoin="round"></g><g id="SVGRepo_iconCarrier"> <path d="M65.9,21.4c0.2,0.2,0.4,0.4,0.6,0.5c9.6,9.7,9.4,39.8,9.4,41.1c0,0.5-0.5,1-1,1h0c-0.6,0-1-0.5-1-1c0-0.3,0.2-30.6-8.8-39.6 c-1.4-1.4-2.9-2.2-4.6-2.4c-0.3,0-0.5,0-0.8,0c-0.3,0-0.6,0-0.9,0C38.6,21.8,37,50.4,37,50.7c0,0.5-0.5,1-1,1c0,0,0,0,0,0 c-0.6,0-1-0.5-1-1c0-0.3,1.1-20.2,13.1-28.3c-15.7,4-25.7,16.4-26.9,34.8L2.4,75.9c-1.5,1.5-0.2,3.9,1.8,3.6c2.3-0.3,5-1.6,7.9-1.6 c13.9,0,14.4,8.2,30.6,8.2c11.8,0,24.8-12.7,30.9-19.5c17.7-1.5,24.7-5.6,24.7-5.6C98.2,38.6,84.2,24.1,65.9,21.4z M67.9,67 c-6.3,0-13.4-3.3-20.2-6.5c-5.7-2.7-11.1-5.2-15.1-5.2c-5.5,0-7.4,1.1-7.4,1.1c-0.5,0.3-1.1,0.2-1.4-0.3c-0.3-0.5-0.2-1.1,0.3-1.4 c0.2-0.2,2.4-1.5,8.5-1.5c4.4,0,10,2.6,16,5.4c6.6,3.1,13.5,6.3,19.3,6.3c0.6,0,1,0.4,1,1S68.5,67,67.9,67z M63,17 c-0.1-1.8-1.5-3.2-3.3-3.2c-1.8,0-3.2,1.4-3.3,3.1c1.1-0.1,2.2-0.1,3.3-0.1C60.8,16.8,61.9,16.9,63,17z"></path> </g></svg>