<svg class="w-6 h-6" height="48" viewBox="0 0 50 50" width="48" xmlns="http://www.w3.org/2000/svg"><defs><style>.Res_User_48_Dark_svg__cls-1{fill:#232f3e}</style></defs><g id="Res_User_48_Dark_svg__Working"><path class="Res_User_48_Dark_svg__cls-1" d="M47.5 48.44h-45a1 1 0 01-1-1v-3a22.73 22.73 0 0117.36-22.1 1.06 1.06 0 01.72.09 11.29 11.29 0 0010.82 0 1 1 0 01.71-.09A22.73 22.73 0 0148.5 44.45v3a1 1 0 01-1 .99zm-44-2h43v-2A20.71 20.71 0 0031 24.39a13.51 13.51 0 01-6 1.43 13.21 13.21 0 01-6-1.43A20.72 20.72 0 003.5 44.45z"></path><path class="Res_User_48_Dark_svg__cls-1" d="M25 25.75a12.18 12.18 0 01-5.9-1.5 12.13 12.13 0 1118.06-10.58 12 12 0 01-6.32 10.58 12.38 12.38 0 01-5.84 1.5zm0-22.19a10.08 10.08 0 00-5 18.94 10.33 10.33 0 009.85 0A10.08 10.08 0 0025 3.56z"></path></g></svg>