<svg class="w-6 h-6" height="48" viewBox="0 0 50 50" width="48" xmlns="http://www.w3.org/2000/svg"><defs><style>.Res_Users_48_Dark_svg__cls-1{fill:#232f3e}</style></defs><g id="Res_Users_48_Dark_svg__Working"><path class="Res_Users_48_Dark_svg__cls-1" d="M14.69 26H2.5a1 1 0 01-1-1v-1.5a11.89 11.89 0 019.09-11.57 1 1 0 01.72.1 5.22 5.22 0 004.93 0 1 1 0 01.72-.1 11.92 11.92 0 013.81 1.68l-1.12 1.66A9.84 9.84 0 0016.84 14a7.33 7.33 0 01-6.13 0 9.89 9.89 0 00-7.21 9.51V24h11.19z"></path><path class="Res_Users_48_Dark_svg__cls-1" d="M13.76 14.63a6.56 6.56 0 110-13.12 6.55 6.55 0 013.18 12.31 6.65 6.65 0 01-3.18.81zm0-11.12a4.59 4.59 0 00-4.61 4.56 4.54 4.54 0 002.38 4 4.67 4.67 0 004.46 0 4.55 4.55 0 00-2.23-8.55zM47.5 26H35.31v-2H46.5v-.5a9.88 9.88 0 00-7.22-9.5 7.26 7.26 0 01-6.13 0 9.29 9.29 0 00-2.85 1.33l-1.13-1.64A11.45 11.45 0 0133 11.94a1.06 1.06 0 01.72.09 5.2 5.2 0 004.95 0 1 1 0 01.71-.09 11.89 11.89 0 019.1 11.57V25a1 1 0 01-.98 1z"></path><path class="Res_Users_48_Dark_svg__cls-1" d="M36.2 14.63a6.61 6.61 0 113.18-.81 6.65 6.65 0 01-3.18.81zm0-11.12a4.59 4.59 0 00-4.61 4.56 4.54 4.54 0 002.38 4 4.67 4.67 0 004.46 0 4.55 4.55 0 00-2.23-8.56zM40.94 48.49H9a1 1 0 01-1-1v-2.12a16.42 16.42 0 0112.54-16 1 1 0 01.72.09 7.85 7.85 0 007.4 0 1 1 0 01.72-.09 16.41 16.41 0 0112.56 16v2.12a1 1 0 01-1 1zm-30.94-2h29.94v-1.12a14.43 14.43 0 00-10.68-13.93 9.87 9.87 0 01-8.6 0A14.43 14.43 0 0010 45.37z"></path><path class="Res_Users_48_Dark_svg__cls-1" d="M25 32.39a9 9 0 01-4.33-1.1 9 9 0 118.63 0 9 9 0 01-4.3 1.1zm0-15.75a6.87 6.87 0 00-3.37 12.9 7.09 7.09 0 006.71 0A6.86 6.86 0 0025 16.64z"></path></g></svg>