<svg xmlns="http://www.w3.org/2000/svg" xmlns:xlink="http://www.w3.org/1999/xlink" viewBox="0 0 85 74.375" fill="#fff" fill-rule="evenodd" stroke="#000" stroke-linecap="round" stroke-linejoin="round"><use xlink:href="#A" x="2.5" y="2.188"/><symbol id="A" overflow="visible"><g stroke="none"><path d="M78.073 36.86a7.01 7.01 0 0 1-.806-1.247 28.39 28.39 0 0 1-2.584-8.032c-1.88-9.338-7.529-17.418-15.543-22.231C53.311 1.667 47.395-.728 40.381.2c-9.277 1.227-17.137 4.78-22.538 13.031-2.992 4.657-5.395 9.687-7.15 14.967-1.661 4.809-1.457 10.078-3.565 14.758-.45.932-.966 1.83-1.545 2.684-1.457 2.285-3.313 4.4-4.352 6.865-2.565 6.057-1.156 9.559 4.556 12.572.583.309 1.185.589 1.797.838 6.664 2.774 22.227 6.206 31.884 2.385 2.249-.709 4.418-1.662 6.47-2.844l22.995-12.802c3.483-1.806 6.616-4.247 9.248-7.204 2.477-2.943 2.409-5.687-.107-8.591z" fill="#4b612c"/><path d="M50.95 3.603c4.111 1.492 7.903 3.782 11.172 6.745 2.458 1.996 8.996 8.91 10.502 17.591.155 1.287.253 2.594.495 3.862.198.552.477 1.07.826 1.537l.787 1.996s1.438 2.345 2.225 3.482c.972 1.417 1.36 2.874.262 4.35-2.438 3.263-5.654 5.528-9.598 7.633l.398-4.261-2.584-.758c-.971 2.275-.379 3.991 2.069 5.229l-6.344 3.443-18.535 10.177a29.02 29.02 0 0 1-14.708 3.482 55.78 55.78 0 0 1-17.292-3.423c-2.526-.928-4.537-4.989-3.76-7.553.361-1.26 1.588-2.038 2.846-1.806l12.979 1.537c4.809.599 9.608 1.666 14.417 1.706 5.45 0 10.686-1.706 15.776-3.882l-4.634.319c-4.294.329-8.617.469-12.881 1.048-5.294.718-10.307-.469-15.34-1.756-4-.915-7.507-3.368-9.802-6.855-.903-1.387-1.457-2.993-.758-4.49.563.519 1.185 1.487 1.671 1.427s1.321-.938 1.583-1.626c.661-1.766 1.107-3.622 1.613-5.448a100.36 100.36 0 0 1 2.73-9.808c2.254-5.787 4.634-11.564 8.393-16.544a34.28 34.28 0 0 1 4.634-5.199c2.254-1.996 5.178-2.674 8.034-2.993 3.39-.329 6.8-.16 10.259-.19.194 0 .389.17.583.269z" fill="#759c3e"/><path d="M72.624 27.939a41.23 41.23 0 0 0-2.263-4.42c-2.079-3.043-5.475-4.849-9.094-4.838s-7.004 1.841-9.063 4.898c-2.837 4.081-4.158 8.741-4.916 13.61-.233 1.457-.398 2.934-.651 4.8a17.12 17.12 0 0 1-2.205-8.282c-.272-5.877.544-11.555 4.119-16.454 2.555-3.502 5.576-6.356 9.996-6.985a19.2 19.2 0 0 1 3.565.12c1.35 1.197 2.963 2.195 4.012 3.622a35.97 35.97 0 0 1 6.217 11.974 15.33 15.33 0 0 1 .282 1.956zM50.951 3.603c-4.925 1.407-7.772 5.149-10.123 9.459-3.361 6.216-5.829 12.742-5.693 19.956a30.73 30.73 0 0 0 2.497 11.974c.175.399.301.818.544 1.477-1.756.101-3.428-.78-4.372-2.305-1.794-2.665-2.681-5.864-2.526-9.1.204-9.309 1.943-18.22 7.869-25.713a39.18 39.18 0 0 1 4.245-4.46c1.527-1.413 3.545-2.133 5.596-1.996zm23.78 31.75c0 2.295-1.545 3.502-3.041 4.73-7.5 6.156-16.233 9.419-25.55 11.185-4.129.788-8.287 1.477-12.454 1.996-5.081.629-9.831-1.187-14.63-2.475-1.943-.529-3.886-1.177-5.897-1.766 0-.219 0-.429.068-.649a15.34 15.34 0 0 1 2.623 0c3.886.688 7.704 1.716 11.599 2.105a50.04 50.04 0 0 0 10.764 0 76.61 76.61 0 0 0 19.585-4.71 83.15 83.15 0 0 0 10.608-5.308c2.701-1.556 5.197-3.522 5.537-7.134zM65.425 45.79l5.605-3.402a7.7 7.7 0 0 1 2.594-.359l.185.469-5.829 4.051z" fill="#b7ca9d"/></g></symbol></svg>