<svg fill="#ffffff" height="200px" width="200px" version="1.1" id="Layer_1" xmlns="http://www.w3.org/2000/svg" xmlns:xlink="http://www.w3.org/1999/xlink" viewBox="0 0 512 512" xml:space="preserve"><g id="SVGRepo_bgCarrier" stroke-width="0"></g><g id="SVGRepo_tracerCarrier" stroke-linecap="round" stroke-linejoin="round"></g><g id="SVGRepo_iconCarrier"> <g> <g> <path d="M460.8,190.171h-7.314v-65.829c0-12.118-9.823-21.943-21.943-21.943h-36.571h-30.501H147.535h-30.506H80.457 c-12.117,0-21.943,9.825-21.943,21.943v65.829H51.2c-12.117,0-21.943,9.825-21.943,21.943c0,12.118,9.826,21.943,21.943,21.943 h7.314v131.657h160.914v-21.943c0-20.165,16.406-36.571,36.571-36.571s36.571,16.406,36.571,36.571v21.943h160.914V234.057h7.314 c12.12,0,21.943-9.825,21.943-21.943C482.743,199.996,472.92,190.171,460.8,190.171z"></path> </g> </g> <g> <g> <path d="M292.571,409.6v80.457c0,12.118,9.826,21.943,21.943,21.943h117.029c12.12,0,21.943-9.825,21.943-21.943V409.6H292.571z"></path> </g> </g> <g> <g> <path d="M58.514,409.6v80.457c0,12.118,9.826,21.943,21.943,21.943h117.029c12.12,0,21.943-9.825,21.943-21.943V409.6H58.514z"></path> </g> </g> <g> <g> <path d="M335.331,15.003C332.345,6.043,323.96,0,314.514,0H197.486c-9.444,0-17.829,6.043-20.818,15.003l-14.504,43.511h187.671 L335.331,15.003z"></path> </g> </g> </g></svg>