<svg class="w-6 h-6" height="48" viewBox="0 0 50 50" width="48" xmlns="http://www.w3.org/2000/svg"><defs><style>.Res_Internet-gateway_48_Dark_svg__cls-1{fill:#232f3e}</style></defs><g id="Res_Internet-gateway_48_Dark_svg__Working"><path class="Res_Internet-gateway_48_Dark_svg__cls-1" d="M39.4 39.86H10.6c-5 0-8.82-3.33-9.08-7.92v-.63a8.41 8.41 0 016.12-8.43v-.64-.5a12.41 12.41 0 0121.27-7.89 13.24 13.24 0 012.81 4 5.7 5.7 0 013.45-1.17c2.65 0 5.43 1.87 6 6 4.77 1.2 7.38 4.28 7.38 8.72-.05 5.45-3.28 8.46-9.15 8.46zM20 12.15a11.2 11.2 0 00-4.27.87 10.59 10.59 0 00-6.13 9.22 10.36 10.36 0 00.08 1.25 1 1 0 01-.75 1.09c-2 .51-5.43 2.05-5.43 6.73v.52c.19 3.49 3.17 6 7.08 6H39.4c4.78 0 7.1-2.12 7.1-6.48 0-3.71-2.19-6.05-6.51-6.93a1 1 0 01-.8-.92c-.21-3.61-2.31-4.89-4-4.89a3.78 3.78 0 00-3 1.53 1 1 0 01-1.73-.26 12 12 0 00-2.92-4.62A10.63 10.63 0 0020 12.15z"></path><path class="Res_Internet-gateway_48_Dark_svg__cls-1" d="M19.67 35.13l-1.38-1.44a9.2 9.2 0 0112.39-.28l-1.31 1.51a7.25 7.25 0 00-4.73-1.77 7.16 7.16 0 00-4.97 1.98z"></path><path class="Res_Internet-gateway_48_Dark_svg__cls-1" d="M17 32.3l-1.4-1.45a13.12 13.12 0 0117.65-.39L31.93 32a11.11 11.11 0 00-14.93.3z"></path><path class="Res_Internet-gateway_48_Dark_svg__cls-1" d="M14.28 29.46L12.9 28a17 17 0 0122.91-.5L34.5 29a15 15 0 00-20.22.44z"></path></g></svg>