<svg viewBox="0 0 24 24" fill="none" xmlns="http://www.w3.org/2000/svg"><g id="SVGRepo_bgCarrier" stroke-width="0"></g><g id="SVGRepo_tracerCarrier" stroke-linecap="round" stroke-linejoin="round"></g><g id="SVGRepo_iconCarrier"> <path d="M4 15L20 15" stroke="#FFFFFF" stroke-width="2" stroke-linecap="round" stroke-linejoin="round"></path> <path d="M4 9L20 9" stroke="#FFFFFF" stroke-width="2" stroke-linecap="round" stroke-linejoin="round"></path> <circle cx="12" cy="12" r="9" stroke="#FFFFFF" stroke-width="2" stroke-linecap="round" stroke-linejoin="round"></circle> <path d="M12.0004 20.8182L11.2862 21.5181C11.4742 21.7101 11.7317 21.8182 12.0004 21.8182C12.2691 21.8182 12.5265 21.7101 12.7146 21.5181L12.0004 20.8182ZM12.0004 3.18188L12.7146 2.48198C12.5265 2.29005 12.2691 2.18188 12.0004 2.18188C11.7317 2.18188 11.4742 2.29005 11.2861 2.48198L12.0004 3.18188ZM14.6004 12.0001C14.6004 15.1611 13.3373 18.0251 11.2862 20.1183L12.7146 21.5181C15.1173 19.0662 16.6004 15.7053 16.6004 12.0001H14.6004ZM11.2861 3.88178C13.3373 5.97501 14.6004 8.83903 14.6004 12.0001H16.6004C16.6004 8.29478 15.1173 4.93389 12.7146 2.48198L11.2861 3.88178ZM9.40039 12.0001C9.40039 8.83903 10.6634 5.97501 12.7146 3.88178L11.2861 2.48198C8.88347 4.93389 7.40039 8.29478 7.40039 12.0001H9.40039ZM12.7146 20.1183C10.6634 18.0251 9.40039 15.1611 9.40039 12.0001H7.40039C7.40039 15.7053 8.88348 19.0662 11.2862 21.5181L12.7146 20.1183Z" fill="#FFFFFF"></path> </g></svg>