<svg fill="#ffffff" viewBox="-3.5 0 24 24" xmlns="http://www.w3.org/2000/svg"><g id="SVGRepo_bgCarrier" stroke-width="0"></g><g id="SVGRepo_tracerCarrier" stroke-linecap="round" stroke-linejoin="round"></g><g id="SVGRepo_iconCarrier"><path d="m11.403 18.751v4.499c-.01.41-.34.74-.748.75h-.001-4.495c-.41-.01-.739-.34-.749-.748v-.001-4.499c.01-.41.34-.739.749-.749h.001 4.499c.41.01.74.34.75.749v.001zm5.923-11.247c-.001 1.232-.353 2.382-.962 3.354l.015-.026c-.297.426-.637.793-1.021 1.108l-.01.008c-.321.282-.672.55-1.042.794l-.036.022q-.413.253-1.144.665c-.526.302-.957.713-1.275 1.204l-.009.014c-.272.348-.456.776-.515 1.243l-.001.012c-.004.233-.088.445-.226.611l.001-.002c-.115.171-.306.284-.524.29h-.001-4.499c-.217-.015-.399-.153-.479-.343l-.001-.004c-.121-.201-.194-.443-.197-.702v-.845c.025-1.142.485-2.172 1.219-2.935l-.001.001c.729-.849 1.622-1.535 2.633-2.013l.048-.02c.615-.25 1.139-.606 1.574-1.049l.001-.001c.293-.359.471-.822.471-1.327 0-.034-.001-.068-.002-.102v.005c-.035-.597-.374-1.108-.863-1.382l-.009-.004c-.546-.376-1.222-.6-1.95-.6-.023 0-.046 0-.068.001h.003c-.04-.002-.087-.003-.134-.003-.701 0-1.355.204-1.905.555l.014-.009c-.748.641-1.408 1.349-1.981 2.125l-.025.035c-.133.181-.343.297-.581.3-.175-.006-.337-.061-.472-.152l.003.002-3.074-2.343c-.151-.111-.257-.275-.29-.464l-.001-.004c-.007-.039-.011-.084-.011-.129 0-.147.043-.283.116-.398l-.002.003c1.657-2.999 4.799-4.996 8.409-4.996.103 0 .205.002.307.005h-.015c1.088.007 2.124.22 3.074.602l-.057-.02c1.047.402 1.952.926 2.757 1.571l-.02-.016c.809.653 1.474 1.447 1.966 2.349l.02.041c.483.857.768 1.881.769 2.971z"></path></g></svg>