<svg class="w-6 h-6" height="48" width="48" xmlns="http://www.w3.org/2000/svg"><path d="M21.24 25.383c-.25 0-.55-.036-.902-.107a6.442 6.442 0 01-.948-.267v1.19c.242.137.54.246.896.33.355.083.711.125 1.066.125.819 0 1.459-.21 1.924-.63.465-.42.698-.99.698-1.707 0-.371-.055-.687-.165-.948-.11-.26-.28-.497-.51-.71a4.68 4.68 0 00-.936-.634l-.613-.33c-.332-.18-.558-.347-.675-.5a.924.924 0 01-.177-.578c0-.28.093-.5.274-.657.18-.16.43-.24.748-.24.468 0 1.01.114 1.623.342V18.86a4.213 4.213 0 00-1.781-.41c-.477 0-.899.093-1.265.279a2.12 2.12 0 00-.869.794c-.21.344-.317.747-.317 1.208 0 .5.12.923.363 1.27.242.349.643.674 1.204.977l.61.329c.311.166.532.33.665.493a.915.915 0 01.198.596c0 .318-.093.56-.284.73-.189.172-.465.257-.828.257zm-4.47-2.95c0-.892-.12-1.548-.358-1.97-.238-.418-.61-.63-1.117-.63h-.66v5.437h.67c.492 0 .858-.214 1.102-.641.24-.43.363-1.085.363-1.97v-.226zm.872-2.814c.508.666.76 1.64.76 2.927 0 1.294-.248 2.274-.748 2.94-.5.665-1.226.998-2.178.998h-2.428V18.62h2.371c.976 0 1.716.333 2.223.998zm-7.441 1.475c0-.423-.079-.744-.232-.964-.156-.22-.381-.33-.676-.33h-.738v2.588h.738c.295 0 .52-.11.676-.33.154-.22.232-.54.232-.964zm.385 2.236l1.588 3.154h-1.633l-1.373-2.916h-.613v2.916H7.002V18.62h2.484c.695 0 1.25.22 1.662.664.412.442.617 1.045.617 1.809 0 .529-.101.987-.305 1.373a1.97 1.97 0 01-.874.863zm31.007-8.192v-4.255c0-.552-.116-.972-.346-1.26-.231-.287-.566-.43-1.004-.43-.553 0-1.13.223-1.736.669l-.124-.522H37.11v5.798h1.555v-4.493c.28-.182.537-.273.77-.273.22 0 .376.076.467.227.09.152.136.394.136.726v3.813h1.554zm-7.125-2.893c0-.643-.063-1.116-.188-1.42-.123-.301-.327-.453-.605-.453-.28 0-.483.152-.608.454-.124.303-.188.776-.188 1.419s.064 1.114.188 1.412c.124.299.328.449.608.449.279 0 .482-.15.606-.45.125-.297.188-.768.188-1.411zm.942-2.258c.409.529.613 1.282.613 2.258 0 .968-.205 1.716-.613 2.245-.407.53-.986.795-1.735.795-.748 0-1.328-.264-1.737-.795-.409-.53-.612-1.277-.612-2.245 0-.976.203-1.73.611-2.258.41-.53.99-.794 1.738-.794s1.328.264 1.736.794zm-8.815 5.15h4.027v-1.191H28.23l2.348-3.505V9.34h-3.893v1.19h2.258l-2.348 3.507v1.1zm-2.361-1.304V12.72a1.946 1.946 0 00-.59-.08c-.218 0-.387.07-.504.21-.119.14-.177.344-.177.607 0 .228.047.407.142.539a.442.442 0 00.38.198c.25 0 .5-.121.748-.362zm-.465 1.266a1.605 1.605 0 01-.737.186c-.47 0-.84-.152-1.111-.46-.273-.305-.41-.727-.41-1.264 0-.568.166-1.016.5-1.345.332-.33.783-.493 1.35-.493.233 0 .524.046.872.136v-.522c0-.393-.05-.66-.152-.8s-.293-.21-.572-.21c-.456 0-1.01.12-1.668.363V9.657c.218-.143.505-.256.861-.34a4.774 4.774 0 011.09-.124c.657 0 1.134.149 1.43.448.294.299.442.777.442 1.435v4.062h-1.203l-.135-.522a1.445 1.445 0 01-.556.483zm-3.358.039v-4.255c0-.545-.114-.962-.34-1.254-.228-.291-.554-.436-.977-.436-.529 0-1.104.23-1.724.692-.22-.462-.598-.692-1.134-.692-.53 0-1.098.223-1.702.669l-.126-.522h-1.27v5.798h1.555v-4.493c.279-.182.526-.273.737-.273.204 0 .35.076.438.227.086.152.13.39.13.716v3.823h1.554V10.77a.606.606 0 00-.011-.125c.28-.182.53-.273.748-.273.204 0 .35.076.438.227.085.152.13.39.13.716v3.823h1.553zm-10.403-3.006l-.715-3.257-.692 3.257h1.407zm2.394 3.006h-1.747l-.41-1.872H8.364l-.397 1.872H6.297l2.178-7.862h1.758l2.168 7.862zm31.6 14.868V26.47c-1.73.943-4.354 1.432-6.966 1.432-2.611 0-5.235-.49-6.965-1.432v3.535c0 .629 2.37 2.104 6.965 2.104 4.596 0 6.966-1.475 6.966-2.104zm0 6.098v-3.426c-1.73.943-4.354 1.432-6.966 1.432-2.611 0-5.235-.49-6.965-1.432v3.426c0 .629 2.37 2.103 6.965 2.103 4.596 0 6.966-1.474 6.966-2.103zm0 5.444v-2.772c-1.73.943-4.354 1.43-6.966 1.43-2.611 0-5.235-.487-6.965-1.43v2.772c0 .629 2.37 2.104 6.965 2.104 4.596 0 6.966-1.475 6.966-2.104zm-13.93-17.75c0 .63 2.369 2.105 6.964 2.105 4.596 0 6.966-1.475 6.966-2.104 0-.63-2.37-2.104-6.966-2.104s-6.965 1.475-6.965 2.104zm15.93 0v17.75c0 2.694-4.51 4.104-8.966 4.104-4.455 0-8.965-1.41-8.965-4.104v-17.75c0-2.693 4.51-4.102 8.965-4.102 4.456 0 8.966 1.409 8.966 4.103zM7.755 43.893h19.682v2H7.755A5.76 5.76 0 012 40.138V7.755A5.761 5.761 0 017.754 2h32.383a5.762 5.762 0 015.755 5.755v12.7h-2v-12.7A3.76 3.76 0 0040.136 4H7.755a3.758 3.758 0 00-3.753 3.755v32.383a3.758 3.758 0 003.753 3.754z" fill="#2E27AD" fill-rule="evenodd"></path></svg>