<svg class="w-6 h-6" height="48" width="48" xmlns="http://www.w3.org/2000/svg"><path d="M40.504 26.16l.224-1.666c1.784 1.087 2.335 1.715 2.495 1.98-.473.143-1.428.017-2.72-.314zm-17.702-6.049c0-.053.043-.096.096-.096.015 0 .026.01.039.017l-.073.147c-.033-.01-.062-.03-.062-.068zm13.712 20.687a1.002 1.002 0 00-.01.133c0 .155-.378.744-2.063 1.41-.751.296-1.638.562-2.638.792-2.575.596-5.74.924-8.907.924-8.466 0-13.607-2.17-13.607-3.126 0-.044-.003-.088-.01-.133L5.442 12.285c.247.144.512.281.79.415.079.038.165.074.247.112a15.46 15.46 0 001.089.453c.276.104.56.204.856.3.087.03.17.06.258.086a26.69 26.69 0 001.522.427 29.753 29.753 0 001.378.32c.365.077.738.151 1.117.22l.244.046c.458.08.927.154 1.403.224.134.02.27.036.406.054.36.05.725.096 1.093.14l.453.051c.444.047.892.09 1.343.13.053.003.107.01.162.013.504.041 1.01.074 1.519.104.145.008.29.014.436.021.384.02.768.034 1.152.047l.45.014c.513.011 1.026.02 1.537.02a71.769 71.769 0 001.987-.034c.385-.013.768-.028 1.15-.047l.439-.02c.509-.03 1.015-.064 1.518-.105l.166-.014c.45-.039.896-.082 1.338-.129l.457-.052c.366-.043.73-.089 1.089-.138.137-.018.275-.036.41-.056a50.22 50.22 0 001.402-.223c.083-.015.164-.03.247-.047a37.893 37.893 0 002.493-.539l.344-.086c.406-.108.799-.222 1.178-.34.087-.028.169-.057.254-.086a18.82 18.82 0 001.954-.756c.079-.037.163-.072.24-.109.279-.134.545-.272.792-.416l-1.792 13.306c-3.637-1.167-8.745-3.284-13.58-5.583a2.092 2.092 0 00-2.084-1.993 2.099 2.099 0 00-2.096 2.096c0 1.155.94 2.095 2.096 2.095.454 0 .872-.149 1.215-.396 4.332 2.08 9.863 4.532 14.18 5.778l-1.78 13.21zM22.896 4c10.419 0 17.76 3.228 17.896 5.021l-.026.208c-.018.062-.057.125-.09.19-.027.051-.047.101-.084.154-.044.062-.11.125-.166.188-.051.055-.094.11-.155.166-.068.061-.155.124-.236.186-.075.058-.141.115-.227.174-.091.06-.2.122-.302.184-.1.06-.19.12-.301.178-.11.06-.24.118-.36.178-.124.061-.24.121-.376.182-.13.057-.276.114-.414.171-.15.06-.291.122-.451.181-.148.056-.314.11-.471.164-.171.06-.335.12-.517.177-.17.054-.355.104-.534.157-.19.056-.373.113-.573.167-.192.052-.4.1-.6.15-.206.051-.406.104-.623.154-.216.05-.448.094-.674.141-.218.045-.43.093-.658.136-.24.046-.497.087-.747.13-.23.04-.453.081-.692.118-.26.04-.536.076-.806.113-.244.033-.482.07-.734.1-.293.036-.602.066-.905.097-.244.026-.48.055-.73.077-.336.031-.688.054-1.034.078-.233.018-.458.038-.696.053-.38.022-.776.036-1.17.053-.215.008-.425.021-.646.028a65.284 65.284 0 01-3.797 0c-.222-.007-.434-.02-.654-.029-.39-.016-.783-.03-1.161-.052-.25-.016-.488-.037-.733-.055-.333-.024-.673-.046-.996-.076-.251-.022-.487-.052-.732-.077-.303-.03-.612-.06-.904-.097-.25-.03-.487-.066-.73-.1-.27-.037-.548-.072-.81-.113-.247-.038-.48-.082-.718-.123-.241-.042-.488-.08-.72-.125-.231-.044-.446-.092-.67-.138-.222-.047-.45-.09-.663-.14-.216-.049-.415-.102-.622-.153-.2-.05-.408-.098-.6-.15-.202-.054-.387-.112-.58-.169-.176-.05-.36-.102-.526-.155-.185-.059-.351-.119-.524-.18-.155-.053-.318-.106-.463-.16-.162-.06-.303-.123-.453-.183-.138-.057-.285-.114-.413-.17-.134-.06-.251-.12-.375-.182-.121-.06-.251-.118-.361-.179-.11-.059-.202-.119-.302-.179-.101-.06-.21-.122-.3-.182-.087-.06-.155-.118-.231-.177-.08-.06-.165-.123-.231-.183-.063-.057-.107-.114-.16-.169-.055-.062-.118-.124-.162-.185-.038-.054-.057-.106-.085-.16-.032-.062-.071-.124-.088-.184l-.028-.209C5.14 7.227 12.48 4 22.896 4zm22.359 22.257c-.213-1.15-1.538-2.368-4.237-3.91l1.716-12.752v-.004l.05-.39a.932.932 0 00.01-.13c0-4.167-10.486-7.07-19.898-7.07C13.485 2 3 4.903 3 9.07c0 .044.003.088.009.132l.052.39v.002L7.29 41.01c.13 3.676 9.613 5.048 15.606 5.048 3.315 0 6.638-.346 9.357-.975a20.661 20.661 0 002.922-.882c2.166-.855 3.285-1.929 3.329-3.19l1.74-12.93c.953.202 1.818.325 2.537.325.969 0 1.694-.205 2.086-.673.35-.416.488-.94.388-1.475z" fill="#3F8624" fill-rule="evenodd"></path></svg>