<svg fill="#ffffff" height="200px" width="200px" version="1.1" id="Layer_1" xmlns="http://www.w3.org/2000/svg" xmlns:xlink="http://www.w3.org/1999/xlink" viewBox="0 0 491.526 491.526" xml:space="preserve"><g id="SVGRepo_bgCarrier" stroke-width="0"></g><g id="SVGRepo_tracerCarrier" stroke-linecap="round" stroke-linejoin="round"></g><g id="SVGRepo_iconCarrier"> <g> <g> <g> <path d="M245.76,188.378c5.345-8.684,11.243-17.142,18.289-25.149l27.402-32.952c7.168-8.602,19.907-9.871,28.59-2.867 l5.202,4.198c1.761,1.413,3.277,3.092,4.465,4.997c11.878,18.801,21.402,37.806,28.508,56.934 c1.249-0.717,2.601-1.311,4.014-1.741c2.109-0.676,4.26-0.901,6.41-0.881V40.963h-204.8v122.88h81.92V188.378z"></path> <path d="M491.52,61.443c0-11.305-9.155-20.48-20.48-20.48H409.6v122.88h81.92V61.443z"></path> <path d="M187.904,252.911c4.342-6.922,12.37-10.568,20.46-9.38c5.632,0.86,10.527,4.014,13.681,8.499 c2.54-16.589,7.373-32.358,14.438-47.227H0v81.92h172.995C176.558,275.029,181.227,263.581,187.904,252.911z"></path> <path d="M443.761,286.723h47.759v-81.92H409.6v20.48h-1.72l5.898,6.717C428.134,248.364,437.78,267.144,443.761,286.723z"></path> <path d="M122.88,40.963H20.48C9.175,40.963,0,50.138,0,61.443v102.4h122.88V40.963z"></path> <path d="M0,430.083c0,11.305,9.175,20.48,20.48,20.48h102.4v-122.88H0V430.083z"></path> <path d="M450.587,327.683c0.41,34.632-11.51,69.1-35.922,96.215c-9.523,10.588-20.562,19.477-32.522,26.665h88.904 c11.305,0,20.48-9.175,20.48-20.48v-102.4H450.587z"></path> <path d="M382.99,259.016l-1.966-2.232c-4.137,16.937-8.151,27.832-8.417,28.59c-3.461,9.277-13.005,14.848-22.835,13.025 c-9.749-1.761-16.855-10.26-16.855-20.173c0-33.587-9.093-67.563-27.054-101.233l-10.691,12.861 c-31.826,36.27-41.349,79.77-29.43,133.386c2.458,11.039-4.465,22.036-15.503,24.515c-7.148,1.659-14.213-0.737-19.026-5.55 c-3.85-3.359-13.455-12.309-23.204-25.948c-3.338,28.099,4.997,57.201,24.351,79.258c19.128,21.791,46.735,34.386,75.735,34.57 c28.897-0.737,56.75-12.063,76.124-33.587C418.707,358.2,418.175,299.095,382.99,259.016z"></path> <path d="M201.574,422.526c-23.409-26.665-34.898-60.703-34.755-94.843h-2.97v122.88h71.373 C222.751,443.067,211.364,433.667,201.574,422.526z"></path> </g> </g> </g> </g></svg>