<svg class="w-6 h-6" height="48" width="48" xmlns="http://www.w3.org/2000/svg"><path d="M30.605 25.637c0-.383 0-1.401-1.67-1.743a1.001 1.001 0 01-.797-.922c-.039-.657-.309-1.065-.707-1.065a.611.611 0 00-.483.258.998.998 0 01-1.74-.258c-.195-.541-.481-1.006-.826-1.346-.317-.314-1.04-.892-2.066-.892-.36 0-.758.072-1.188.25-.92.385-1.669 1.538-1.669 2.57 0 .123.008.24.021.357a1 1 0 01-.748 1.088c-.886.223-1.334.787-1.334 1.678l.005.146c.045.828 1.016 1.589 2.036 1.589h9.39c1.776 0 1.776-1.287 1.776-1.71zm2 0c0 2.68-1.93 3.668-3.628 3.709h-9.538c-2.084 0-3.93-1.596-4.034-3.486a4.134 4.134 0 01-.007-.248c0-1.535.759-2.738 2.067-3.344.096-1.757 1.308-3.532 2.893-4.194 1.921-.797 3.948-.402 5.43 1.065.279.274.526.585.744.93 1.247-.47 3.024.089 3.497 2.052 1.646.562 2.576 1.814 2.576 3.516zM44.002 24c0-11.028-8.973-20.001-20-20.001C12.972 4 4 12.973 4 24c0 11.03 8.973 20.002 20.002 20.002 11.027 0 20-8.972 20-20.001zm2 0c0 12.132-9.87 22-22 22C11.87 46.002 2 36.134 2 24.002S11.87 2 24.002 2c12.13 0 22 9.869 22 22zm-34.329-3.637L10.26 18.95l-4.345 4.344a1 1 0 000 1.414l4.345 4.346 1.415-1.414L9.036 25h4.955v-2H9.036l2.638-2.636zm30.416 2.93l-4.346-4.344-1.413 1.414L38.968 23h-4.983v2h4.983l-2.639 2.639 1.414 1.414 4.346-4.346a.996.996 0 000-1.414zM25.002 38.968v-7.992h-2v7.992l-2.639-2.64-1.413 1.415 4.344 4.346a1 1 0 001.415 0l4.345-4.346-1.414-1.414L25 38.968zm-4.639-27.295l-1.413-1.414 4.344-4.345a1.002 1.002 0 011.415 0l4.345 4.345-1.414 1.414L25 9.035v7.24h-2v-7.24l-2.638 2.638z" fill="#4D27AA" fill-rule="evenodd"></path></svg>